<svg height="70" viewBox="0 0 19 8" fill="none" xmlns="http://www.w3.org/2000/svg">
<path d="M6.246 7H6.07L6.402 5.6H6.694L7.026 7H6.85L6.768 6.646H6.328L6.246 7ZM6.734 6.506L6.554 5.728H6.542L6.36 6.506H6.734ZM7.4397 7H7.2757V5.96H7.3657L7.3977 6.082C7.49504 5.98733 7.61104 5.93933 7.7457 5.938L7.7297 6.082C7.60837 6.082 7.5117 6.118 7.4397 6.19V7ZM8.14819 5.78V5.96H8.33219V6.078H8.14819V6.75C8.14819 6.80733 8.15419 6.848 8.16619 6.872C8.17819 6.896 8.20085 6.908 8.23419 6.908C8.26752 6.908 8.29752 6.90533 8.32419 6.9L8.33819 7C8.29019 7.016 8.24419 7.024 8.20019 7.024C8.15752 7.024 8.12219 7.01933 8.09419 7.01C8.06752 7.00067 8.04685 6.98933 8.03219 6.976C8.01752 6.96267 8.00619 6.94267 7.99819 6.916C7.98885 6.88 7.98419 6.82467 7.98419 6.75V6.078H7.84219V5.99L7.98419 5.96L8.07419 5.78H8.14819ZM9.34997 7.024C9.17264 7.024 9.06464 6.96667 9.02597 6.852C9.0073 6.79867 8.99797 6.73267 8.99797 6.654C8.99797 6.49533 9.0433 6.39 9.13397 6.338L9.24797 6.274L9.20397 6.218C9.1653 6.17 9.13864 6.12467 9.12397 6.082C9.1093 6.03933 9.10197 5.99133 9.10197 5.938C9.10197 5.88467 9.10597 5.842 9.11397 5.81C9.12197 5.778 9.1373 5.74667 9.15997 5.716C9.18264 5.684 9.21864 5.66 9.26797 5.644C9.31864 5.62667 9.3813 5.618 9.45597 5.618C9.53064 5.618 9.59197 5.62667 9.63997 5.644C9.68797 5.66 9.7233 5.684 9.74597 5.716C9.76864 5.74667 9.7833 5.778 9.78997 5.81C9.79797 5.84067 9.80197 5.88933 9.80197 5.956C9.80197 6.02133 9.7933 6.07133 9.77597 6.106C9.75997 6.13933 9.71664 6.176 9.64597 6.216L9.48597 6.308L10.044 7L9.84997 7.026L9.72997 6.876C9.67797 6.97467 9.5513 7.024 9.34997 7.024ZM9.36197 6.882C9.5233 6.882 9.61397 6.84 9.63397 6.756L9.34197 6.392L9.27397 6.43C9.22997 6.454 9.20064 6.47667 9.18597 6.498C9.1713 6.51933 9.16397 6.544 9.16397 6.572V6.754C9.16397 6.77533 9.17197 6.79667 9.18797 6.818C9.21997 6.86067 9.27797 6.882 9.36197 6.882ZM9.26797 5.87V5.978C9.26797 6.01533 9.2873 6.05867 9.32597 6.108L9.39197 6.19L9.55797 6.094C9.58997 6.07533 9.61064 6.05867 9.61997 6.044C9.63064 6.028 9.63597 6.00667 9.63597 5.98V5.87C9.63597 5.85133 9.62797 5.83267 9.61197 5.814C9.5973 5.79533 9.57664 5.782 9.54997 5.774C9.5233 5.76467 9.49064 5.76 9.45197 5.76C9.4133 5.76 9.38064 5.76467 9.35397 5.774C9.3273 5.782 9.30864 5.79267 9.29797 5.806C9.27797 5.82867 9.26797 5.85 9.26797 5.87ZM10.6136 5.6H11.0136C11.1216 5.6 11.2149 5.61467 11.2936 5.644C11.3269 5.656 11.3536 5.67867 11.3736 5.712C11.3936 5.744 11.4096 5.77333 11.4216 5.8C11.4336 5.82667 11.4416 5.87067 11.4456 5.932C11.4536 6.03067 11.4576 6.15 11.4576 6.29C11.4576 6.42867 11.4563 6.52667 11.4536 6.584C11.4509 6.64133 11.4423 6.70467 11.4276 6.774C11.4143 6.842 11.3916 6.888 11.3596 6.912C11.2809 6.97067 11.1656 7 11.0136 7H10.6136V5.6ZM11.0156 5.744H10.7856V6.852H11.0156C11.1076 6.852 11.1776 6.83667 11.2256 6.806C11.2589 6.78467 11.2776 6.74267 11.2816 6.68C11.2829 6.66 11.2836 6.63 11.2836 6.59V6.006C11.2836 5.966 11.2829 5.93667 11.2816 5.918C11.2803 5.898 11.2749 5.87467 11.2656 5.848C11.2576 5.82133 11.2443 5.802 11.2256 5.79C11.1776 5.75933 11.1076 5.744 11.0156 5.744ZM11.9234 6.244V6.45C12.0594 6.45 12.1401 6.44533 12.1654 6.436C12.1921 6.42533 12.2154 6.41467 12.2354 6.404C12.2714 6.38533 12.2894 6.34867 12.2894 6.294V6.248C12.2894 6.18267 12.2794 6.13667 12.2594 6.11C12.2394 6.08333 12.1914 6.07 12.1154 6.07C12.0408 6.07 11.9901 6.08533 11.9634 6.116C11.9368 6.14533 11.9234 6.188 11.9234 6.244ZM11.9414 5.964C11.9641 5.95333 11.9901 5.94667 12.0194 5.944C12.0488 5.94 12.0901 5.938 12.1434 5.938C12.1981 5.938 12.2488 5.94533 12.2954 5.96C12.3421 5.97467 12.3761 5.998 12.3974 6.03C12.4201 6.06067 12.4348 6.09267 12.4414 6.126C12.4494 6.158 12.4534 6.19533 12.4534 6.238C12.4534 6.27933 12.4508 6.314 12.4454 6.342C12.4401 6.36867 12.4334 6.392 12.4254 6.412C12.4188 6.432 12.4068 6.45 12.3894 6.466C12.3734 6.48067 12.3581 6.49333 12.3434 6.504C12.3301 6.51467 12.3094 6.524 12.2814 6.532C12.2548 6.53867 12.2314 6.544 12.2114 6.548C12.1914 6.552 12.1628 6.55533 12.1254 6.558C12.0694 6.562 12.0021 6.564 11.9234 6.564V6.714C11.9234 6.78333 11.9381 6.83067 11.9674 6.856C11.9968 6.88 12.0414 6.892 12.1014 6.892C12.2121 6.892 12.3114 6.87333 12.3994 6.836L12.4314 6.936C12.3314 6.99467 12.2208 7.024 12.0994 7.024C12.0354 7.024 11.9834 7.01667 11.9434 7.002C11.9048 6.98867 11.8768 6.97333 11.8594 6.956C11.8434 6.93867 11.8294 6.92267 11.8174 6.908C11.8054 6.89333 11.7954 6.872 11.7874 6.844C11.7808 6.816 11.7754 6.792 11.7714 6.772C11.7674 6.75067 11.7648 6.72133 11.7634 6.684C11.7594 6.62 11.7574 6.56 11.7574 6.504V6.384C11.7574 6.31333 11.7601 6.26267 11.7654 6.232C11.7708 6.20133 11.7761 6.17267 11.7814 6.146C11.7868 6.118 11.7941 6.09733 11.8034 6.084C11.8128 6.06933 11.8234 6.05267 11.8354 6.034C11.8488 6.01533 11.8641 6.00133 11.8814 5.992C11.9001 5.98267 11.9201 5.97333 11.9414 5.964ZM11.9814 5.828L11.9354 5.76L12.2654 5.488L12.3574 5.622L11.9814 5.828ZM13.3045 5.986L13.2725 6.092C13.2138 6.07733 13.1545 6.07 13.0945 6.07C13.0345 6.07 12.9905 6.074 12.9625 6.082C12.9345 6.09 12.9145 6.104 12.9025 6.124C12.8918 6.144 12.8852 6.162 12.8825 6.178C12.8798 6.194 12.8785 6.21867 12.8785 6.252V6.708C12.8785 6.83333 12.9425 6.896 13.0705 6.896C13.1225 6.896 13.1938 6.88533 13.2845 6.864L13.3085 6.972C13.2325 7.00667 13.1478 7.024 13.0545 7.024C12.9905 7.024 12.9385 7.01667 12.8985 7.002C12.8598 6.98867 12.8318 6.97333 12.8145 6.956C12.7985 6.93867 12.7845 6.92267 12.7725 6.908C12.7605 6.89333 12.7505 6.872 12.7425 6.844C12.7358 6.816 12.7305 6.792 12.7265 6.772C12.7225 6.75067 12.7198 6.72133 12.7185 6.684C12.7145 6.62 12.7125 6.56 12.7125 6.504V6.384C12.7125 6.31333 12.7152 6.26267 12.7205 6.232C12.7258 6.20133 12.7312 6.17267 12.7365 6.146C12.7418 6.118 12.7492 6.09733 12.7585 6.084C12.7678 6.06933 12.7785 6.05267 12.7905 6.034C12.8038 6.01533 12.8192 6.00133 12.8365 5.992C12.8552 5.98267 12.8758 5.97333 12.8985 5.964C12.9345 5.94667 12.9925 5.938 13.0725 5.938C13.1538 5.938 13.2312 5.954 13.3045 5.986ZM13.993 7.014C13.961 7.02067 13.925 7.024 13.885 7.024C13.845 7.024 13.809 7.02067 13.777 7.014C13.745 7.00867 13.717 7.00267 13.693 6.996C13.669 6.988 13.6477 6.97533 13.629 6.958C13.6117 6.93933 13.597 6.92333 13.585 6.91C13.573 6.89533 13.563 6.87333 13.555 6.844C13.547 6.81467 13.541 6.79067 13.537 6.772C13.533 6.752 13.5297 6.722 13.527 6.682C13.5244 6.642 13.523 6.61067 13.523 6.588V6.372C13.523 6.29467 13.5264 6.24067 13.533 6.21C13.5397 6.178 13.547 6.14733 13.555 6.118C13.563 6.08867 13.573 6.06733 13.585 6.054C13.597 6.03933 13.6117 6.02333 13.629 6.006C13.6477 5.98733 13.669 5.97467 13.693 5.968C13.717 5.96 13.745 5.95333 13.777 5.948C13.809 5.94133 13.845 5.938 13.885 5.938C13.925 5.938 13.961 5.94133 13.993 5.948C14.025 5.95333 14.053 5.96 14.077 5.968C14.101 5.97467 14.1224 5.98733 14.141 6.006C14.1597 6.02333 14.175 6.03933 14.187 6.054C14.199 6.06733 14.209 6.08867 14.217 6.118C14.225 6.14733 14.231 6.17133 14.235 6.19C14.239 6.20867 14.2424 6.238 14.245 6.278C14.2477 6.318 14.249 6.34933 14.249 6.372C14.249 6.372 14.249 6.444 14.249 6.588C14.249 6.66533 14.2457 6.72 14.239 6.752C14.2324 6.784 14.225 6.81467 14.217 6.844C14.209 6.87333 14.199 6.89533 14.187 6.91C14.175 6.92333 14.1597 6.93933 14.141 6.958C14.1224 6.97533 14.101 6.988 14.077 6.996C14.053 7.00267 14.025 7.00867 13.993 7.014ZM14.079 6.71V6.252C14.079 6.21867 14.0777 6.194 14.075 6.178C14.0724 6.162 14.0657 6.144 14.055 6.124C14.0444 6.10267 14.025 6.088 13.997 6.08C13.969 6.072 13.9317 6.068 13.885 6.068C13.8384 6.068 13.8004 6.072 13.771 6.08C13.743 6.088 13.7237 6.10267 13.713 6.124C13.7024 6.144 13.6957 6.162 13.693 6.178C13.6904 6.194 13.689 6.21867 13.689 6.252V6.71C13.689 6.74333 13.6904 6.768 13.693 6.784C13.6957 6.8 13.7024 6.81867 13.713 6.84C13.7237 6.86 13.743 6.874 13.771 6.882C13.8004 6.89 13.8384 6.894 13.885 6.894C13.9317 6.894 13.969 6.89 13.997 6.882C14.025 6.874 14.0444 6.86 14.055 6.84C14.0657 6.81867 14.0724 6.8 14.075 6.784C14.0777 6.768 14.079 6.74333 14.079 6.71Z" fill="black"/>
<path d="M5.302 4.928C5.322 4.928 5.332 4.94 5.332 4.964C5.332 4.988 5.322 5 5.302 5C5.222 5 5.098 4.996 4.93 4.988C4.754 4.98 4.628 4.976 4.552 4.976C4.452 4.976 4.33 4.98 4.186 4.988C4.05 4.996 3.942 5 3.862 5C3.846 5 3.838 4.988 3.838 4.964C3.838 4.94 3.846 4.928 3.862 4.928C3.966 4.928 4.04 4.918 4.084 4.898C4.132 4.874 4.156 4.834 4.156 4.778C4.156 4.71 4.116 4.596 4.036 4.436L3.412 3.206H2.344L1.918 4.148C1.866 4.264 1.84 4.372 1.84 4.472C1.84 4.616 1.89 4.728 1.99 4.808C2.094 4.888 2.232 4.928 2.404 4.928C2.424 4.928 2.434 4.94 2.434 4.964C2.434 4.988 2.424 5 2.404 5C2.332 5 2.228 4.996 2.092 4.988C1.94 4.98 1.808 4.976 1.696 4.976C1.588 4.976 1.458 4.98 1.306 4.988C1.17 4.996 1.06 5 0.976 5C0.96 5 0.952 4.988 0.952 4.964C0.952 4.94 0.96 4.928 0.976 4.928C1.088 4.928 1.182 4.906 1.258 4.862C1.334 4.814 1.41 4.732 1.486 4.616C1.562 4.496 1.652 4.32 1.756 4.088L3.058 1.226C3.066 1.214 3.084 1.208 3.112 1.208C3.144 1.208 3.162 1.214 3.166 1.226L4.666 4.178C4.806 4.462 4.922 4.658 5.014 4.766C5.106 4.874 5.202 4.928 5.302 4.928ZM2.422 3.038H3.328L2.848 2.09L2.422 3.038ZM9.27892 4.928C9.29092 4.928 9.29692 4.94 9.29692 4.964C9.29692 4.988 9.29092 5 9.27892 5H8.60692C8.54292 5 8.48892 5.002 8.44492 5.006C8.40092 5.01 8.36492 5.012 8.33692 5.012C8.27292 5.012 8.21692 4.998 8.16892 4.97C8.12492 4.938 8.06892 4.882 8.00092 4.802C7.93692 4.722 7.82092 4.568 7.65292 4.34C7.63292 4.312 7.60892 4.282 7.58092 4.25C7.55692 4.214 7.52892 4.174 7.49692 4.13L6.71092 3.074L6.57892 3.206V4.514C6.57892 4.638 6.58892 4.728 6.60892 4.784C6.62892 4.84 6.66692 4.878 6.72292 4.898C6.78292 4.918 6.87692 4.928 7.00492 4.928C7.02092 4.928 7.02892 4.94 7.02892 4.964C7.02892 4.988 7.02092 5 7.00492 5C6.87292 5 6.76892 4.998 6.69292 4.994L6.24292 4.988L5.79892 4.994C5.71892 4.998 5.61092 5 5.47492 5C5.46692 5 5.46292 4.988 5.46292 4.964C5.46292 4.94 5.46692 4.928 5.47492 4.928C5.60292 4.928 5.69692 4.918 5.75692 4.898C5.81692 4.878 5.85692 4.84 5.87692 4.784C5.90092 4.724 5.91292 4.634 5.91292 4.514V1.736C5.91292 1.616 5.90092 1.528 5.87692 1.472C5.85692 1.416 5.81692 1.378 5.75692 1.358C5.70092 1.334 5.61092 1.322 5.48692 1.322C5.47492 1.322 5.46892 1.31 5.46892 1.286C5.46892 1.262 5.47492 1.25 5.48692 1.25L5.80492 1.256C5.98892 1.264 6.13492 1.268 6.24292 1.268C6.36292 1.268 6.51492 1.264 6.69892 1.256L7.00492 1.25C7.01692 1.25 7.02292 1.262 7.02292 1.286C7.02292 1.31 7.01692 1.322 7.00492 1.322C6.88092 1.322 6.78892 1.334 6.72892 1.358C6.67292 1.382 6.63292 1.424 6.60892 1.484C6.58892 1.54 6.57892 1.628 6.57892 1.748V3.02L7.70692 1.868C7.82292 1.752 7.88092 1.646 7.88092 1.55C7.88092 1.478 7.84892 1.422 7.78492 1.382C7.72092 1.342 7.63092 1.322 7.51492 1.322C7.50292 1.322 7.49692 1.31 7.49692 1.286C7.49692 1.262 7.50292 1.25 7.51492 1.25L7.79692 1.256C7.97292 1.264 8.13692 1.268 8.28892 1.268C8.45292 1.268 8.62292 1.264 8.79892 1.256L9.06892 1.25C9.08092 1.25 9.08692 1.262 9.08692 1.286C9.08692 1.31 9.08092 1.322 9.06892 1.322C8.88492 1.322 8.68292 1.376 8.46292 1.484C8.24292 1.588 8.04292 1.728 7.86292 1.904L7.18492 2.594L8.07292 3.794C8.33292 4.166 8.52692 4.43 8.65492 4.586C8.78692 4.738 8.89292 4.834 8.97292 4.874C9.05292 4.91 9.15492 4.928 9.27892 4.928ZM10.5886 4.514C10.5886 4.638 10.5986 4.728 10.6186 4.784C10.6386 4.84 10.6766 4.878 10.7326 4.898C10.7926 4.918 10.8866 4.928 11.0146 4.928C11.0266 4.928 11.0326 4.94 11.0326 4.964C11.0326 4.988 11.0266 5 11.0146 5C10.8826 5 10.7786 4.998 10.7026 4.994L10.2466 4.988L9.80256 4.994C9.72256 4.998 9.61456 5 9.47856 5C9.47056 5 9.46656 4.988 9.46656 4.964C9.46656 4.94 9.47056 4.928 9.47856 4.928C9.60656 4.928 9.70056 4.918 9.76056 4.898C9.82056 4.878 9.86056 4.84 9.88056 4.784C9.90456 4.724 9.91656 4.634 9.91656 4.514V1.736C9.91656 1.616 9.90456 1.528 9.88056 1.472C9.86056 1.416 9.82056 1.378 9.76056 1.358C9.70056 1.334 9.60656 1.322 9.47856 1.322C9.47056 1.322 9.46656 1.31 9.46656 1.286C9.46656 1.262 9.47056 1.25 9.47856 1.25L9.80256 1.256C9.98656 1.264 10.1346 1.268 10.2466 1.268C10.3706 1.268 10.5246 1.264 10.7086 1.256L11.0146 1.25C11.0266 1.25 11.0326 1.262 11.0326 1.286C11.0326 1.31 11.0266 1.322 11.0146 1.322C10.8906 1.322 10.7986 1.334 10.7386 1.358C10.6786 1.382 10.6386 1.424 10.6186 1.484C10.5986 1.54 10.5886 1.628 10.5886 1.748V4.514ZM15.2673 1.25C15.2793 1.25 15.2853 1.262 15.2853 1.286C15.2853 1.31 15.2793 1.322 15.2673 1.322C15.1233 1.322 14.9853 1.386 14.8533 1.514C14.7213 1.642 14.6153 1.814 14.5353 2.03L13.4253 4.994C13.4213 5.01 13.3993 5.018 13.3593 5.018C13.3193 5.018 13.2973 5.01 13.2933 4.994L11.7633 1.748C11.6913 1.604 11.6193 1.498 11.5473 1.43C11.4753 1.358 11.3953 1.322 11.3073 1.322C11.2953 1.322 11.2893 1.31 11.2893 1.286C11.2893 1.262 11.2953 1.25 11.3073 1.25C11.3673 1.25 11.4093 1.252 11.4333 1.256C11.5133 1.264 11.6173 1.268 11.7453 1.268C12.0893 1.268 12.3813 1.264 12.6213 1.256C12.6853 1.252 12.7653 1.25 12.8613 1.25C12.8733 1.25 12.8793 1.262 12.8793 1.286C12.8793 1.31 12.8733 1.322 12.8613 1.322C12.7413 1.322 12.6473 1.348 12.5793 1.4C12.5153 1.448 12.4833 1.518 12.4833 1.61C12.4833 1.678 12.5053 1.76 12.5493 1.856L13.5873 4.07L14.3673 2.012C14.4073 1.9 14.4273 1.804 14.4273 1.724C14.4273 1.6 14.3893 1.502 14.3133 1.43C14.2413 1.358 14.1353 1.322 13.9953 1.322C13.9833 1.322 13.9773 1.31 13.9773 1.286C13.9773 1.262 13.9833 1.25 13.9953 1.25L14.2893 1.256C14.4573 1.264 14.6073 1.268 14.7393 1.268C14.8153 1.268 14.9093 1.264 15.0213 1.256L15.2673 1.25ZM18.9485 4.928C18.9685 4.928 18.9785 4.94 18.9785 4.964C18.9785 4.988 18.9685 5 18.9485 5C18.8685 5 18.7445 4.996 18.5765 4.988C18.4005 4.98 18.2745 4.976 18.1985 4.976C18.0985 4.976 17.9765 4.98 17.8325 4.988C17.6965 4.996 17.5885 5 17.5085 5C17.4925 5 17.4845 4.988 17.4845 4.964C17.4845 4.94 17.4925 4.928 17.5085 4.928C17.6125 4.928 17.6865 4.918 17.7305 4.898C17.7785 4.874 17.8025 4.834 17.8025 4.778C17.8025 4.71 17.7625 4.596 17.6825 4.436L17.0585 3.206H15.9905L15.5645 4.148C15.5125 4.264 15.4865 4.372 15.4865 4.472C15.4865 4.616 15.5365 4.728 15.6365 4.808C15.7405 4.888 15.8785 4.928 16.0505 4.928C16.0705 4.928 16.0805 4.94 16.0805 4.964C16.0805 4.988 16.0705 5 16.0505 5C15.9785 5 15.8745 4.996 15.7385 4.988C15.5865 4.98 15.4545 4.976 15.3425 4.976C15.2345 4.976 15.1045 4.98 14.9525 4.988C14.8165 4.996 14.7065 5 14.6225 5C14.6065 5 14.5985 4.988 14.5985 4.964C14.5985 4.94 14.6065 4.928 14.6225 4.928C14.7345 4.928 14.8285 4.906 14.9045 4.862C14.9805 4.814 15.0565 4.732 15.1325 4.616C15.2085 4.496 15.2985 4.32 15.4025 4.088L16.7045 1.226C16.7125 1.214 16.7305 1.208 16.7585 1.208C16.7905 1.208 16.8085 1.214 16.8125 1.226L18.3125 4.178C18.4525 4.462 18.5685 4.658 18.6605 4.766C18.7525 4.874 18.8485 4.928 18.9485 4.928ZM16.0685 3.038H16.9745L16.4945 2.09L16.0685 3.038Z" fill="black"/>
</svg>
